<?xml version="1.0" encoding="utf-8"?>
<!-- Generator: Adobe Illustrator 17.0.0, SVG Export Plug-In . SVG Version: 6.00 Build 0)  -->
<!DOCTYPE svg PUBLIC "-//W3C//DTD SVG 1.1//EN" "http://www.w3.org/Graphics/SVG/1.1/DTD/svg11.dtd">
<svg version="1.1" xmlns="http://www.w3.org/2000/svg" xmlns:xlink="http://www.w3.org/1999/xlink" x="0px" y="0px" width="235px"
	 height="251px" viewBox="0 0 235 251" enable-background="new 0 0 235 251" xml:space="preserve">
<g id="Arrière-plan_xA0_Image_1_">
</g>
<g id="Shape_1_copie_1_" opacity="0.149" enable-background="new    ">
	<g id="Shape_1_copie">
		<g>
			<path fill-rule="evenodd" clip-rule="evenodd" d="M214.759,42.243C201.865,29.466,183.981,23.027,165.831,23
				c-18.199-0.013-34.484,6.597-46.681,18.455c-12.18,11.858-18.946,27.332-18.69,43.261c0.205,12.523,4.799,24.178,13.241,34.35
				c-19.046,15.672-38.825,31.696-57.781,48.405c-0.026,0.022-0.054,0.042-0.081,0.065c-0.025,0.022-0.047,0.047-0.073,0.07
				c-11.428,10.03-22.537,20.303-33.166,30.185c-0.034,0.032-0.073,0.059-0.107,0.091c-0.035,0.032-0.063,0.067-0.097,0.099
				c-6.482,6.005-12.791,11.845-18.967,17.157c-4.207,3.69-4.173,8.408,0.09,11.485c2.136,1.551,4.939,2.464,7.755,2.608
				c2.815,0.141,5.639-0.517,7.798-2.175c3.748-2.873,7.54-5.965,11.386-9.188c8.174,7.132,16.414,15.386,24.592,24.847
				c2.212,2.555,5.122,4.23,8.056,4.774c2.934,0.546,5.896-0.058,8.206-1.998c4.62-3.885,4.867-11.548,0.402-16.574
				c-8.244-9.333-16.577-17.674-24.889-25.089c5.561-4.826,11.228-9.742,16.977-14.659c3.96,3.578,7.917,7.322,11.861,11.244
				c2.273,2.259,5.298,3.551,8.367,3.777c3.069,0.226,6.184-0.625,8.622-2.643c4.878-4.035,5.178-11.196,0.588-15.729
				c-3.98-3.939-7.978-7.727-11.985-11.373c16.48-13.719,33.293-27.059,49.486-40.192c11.81,7.91,25.798,13.292,40.063,14.935
				c18.225,2.105,34.445-2.309,45.841-13.158c11.391-10.801,17.145-26.826,17.226-45.033
				C233.891,72.807,227.716,54.972,214.759,42.243z M201.572,117.907c-7.815,7.233-18.637,10.373-30.601,9.27
				c-11.953-1.11-23.534-6.216-32.345-14.156c-8.824-7.958-13.8-17.886-14.088-28.497c-0.292-10.595,4.076-20.652,12.193-28.31
				c8.12-7.647,19.071-11.924,31.011-11.822c11.928,0.103,23.391,4.583,31.961,12.943c8.583,8.34,13.21,19.61,13.469,31.243
				C213.414,100.22,209.384,110.699,201.572,117.907z"/>
		</g>
	</g>
</g>
<g id="Shape_1_1_" enable-background="new    ">
	<g id="Shape_1_2_">
		<g>
			<path fill-rule="evenodd" clip-rule="evenodd" fill="#FFFFFF" d="M213.939,19.916C201.089,7.073,184.001,0,165.826,0
				c-18.175,0-35.263,7.073-48.115,19.916c-12.852,12.843-19.93,29.918-19.93,48.08c0,14.241,4.369,27.803,12.443,39.19
				L56.177,161.2c-0.025,0.024-0.052,0.045-0.077,0.07c-0.024,0.024-0.045,0.052-0.069,0.076l-32.572,32.552
				c-0.035,0.035-0.074,0.064-0.11,0.099c-0.036,0.036-0.065,0.074-0.099,0.11L3.391,213.953
				c-4.521,4.519-4.521,11.846,0.001,16.364c2.261,2.259,5.224,3.388,8.188,3.388c2.964,0,5.928-1.13,8.188-3.391l11.774-11.767
				l25.082,25.063c2.261,2.259,5.225,3.389,8.188,3.389c2.963,0,5.927-1.13,8.188-3.389c4.521-4.519,4.521-11.845,0-16.364
				l-25.082-25.063l16.375-16.365l11.774,11.764c2.262,2.259,5.225,3.389,8.188,3.389c2.964,0,5.927-1.13,8.188-3.389
				c4.521-4.519,4.521-11.845,0-16.364l-11.775-11.765l45.931-45.905c11.399,8.072,24.973,12.44,39.227,12.44
				c18.174,0,35.262-7.072,48.114-19.915c12.853-12.842,19.931-29.917,19.931-48.079S226.791,32.758,213.939,19.916z M197.566,99.71
				c-8.478,8.471-19.75,13.137-31.739,13.137c-11.989,0-23.261-4.665-31.739-13.137c-8.479-8.471-13.148-19.734-13.148-31.716
				c-0.001-11.98,4.668-23.243,13.146-31.716c8.479-8.471,19.75-13.138,31.74-13.138c11.989,0,23.261,4.666,31.74,13.138
				c8.477,8.471,13.147,19.734,13.147,31.716C210.713,79.976,206.044,91.24,197.566,99.71z"/>
		</g>
	</g>
</g>
</svg>
