<?xml version="1.0" encoding="utf-8"?>
<!-- Generator: Adobe Illustrator 17.0.0, SVG Export Plug-In . SVG Version: 6.00 Build 0)  -->
<!DOCTYPE svg PUBLIC "-//W3C//DTD SVG 1.1//EN" "http://www.w3.org/Graphics/SVG/1.1/DTD/svg11.dtd">
<svg version="1.1" xmlns="http://www.w3.org/2000/svg" xmlns:xlink="http://www.w3.org/1999/xlink" x="0px" y="0px" width="273px"
	 height="271px" viewBox="0 0 273 271" enable-background="new 0 0 273 271" xml:space="preserve">
<g id="Arrière-plan_xA0_Image_1_">
</g>
<g id="Forma_1_copie_1_" opacity="0.149" enable-background="new    ">
	<g id="Forma_1_copie">
		<path fill-rule="evenodd" clip-rule="evenodd" d="M230.271,181.91c-14.763-11.843-32.304-19.863-51.423-24.665
			c20.526-15.204,34.073-40.748,34.174-67.587c0.142-43.345-34.575-74.16-77.603-74.397c-43.051,0.047-78.366,31.022-78.513,74.5
			c-0.105,26.915,13.221,52.508,33.605,67.657c-19.079,4.864-36.542,12.906-51.184,24.71C13.942,202.219,0.023,233.384,0,270h21.095
			c-0.157-60.37,50.672-97.962,113.518-97.855c62.808-0.485,114.16,37.283,114.304,97.855h21.095
			C270.031,233.417,255.877,202.083,230.271,181.91z M134.657,152.01c-31.412,0.195-56.829-27.683-56.676-59.544
			c0.146-31.825,25.893-55.379,57.305-55.4c31.403,0.098,56.763,23.574,56.621,55.306
			C191.758,124.138,166.069,152.055,134.657,152.01z"/>
	</g>
</g>
<g id="Forma_1_1_" enable-background="new    ">
	<g id="Forma_1_3_">
		<path fill-rule="evenodd" clip-rule="evenodd" fill="#FFFFFF" d="M231.456,174.54c-14.705-14.703-32.208-25.588-51.305-32.177
			c20.453-14.086,33.891-37.66,33.891-64.316C214.042,35.012,179.026,0,135.988,0S57.933,35.012,57.933,78.047
			c0,26.656,13.438,50.23,33.891,64.316c-19.097,6.589-36.6,17.474-51.305,32.177c-25.5,25.499-39.544,59.4-39.544,95.46h21.096
			c0-62.808,51.103-113.906,113.917-113.906S249.904,207.192,249.904,270H271C271,233.94,256.956,200.039,231.456,174.54z
			 M135.988,135c-31.407,0-56.958-25.549-56.958-56.953c0-31.404,25.551-56.953,56.958-56.953s56.958,25.549,56.958,56.953
			C192.946,109.451,167.394,135,135.988,135z"/>
	</g>
</g>
</svg>
