<?xml version="1.0" encoding="utf-8"?>
<!-- Generator: Adobe Illustrator 17.0.0, SVG Export Plug-In . SVG Version: 6.00 Build 0)  -->
<!DOCTYPE svg PUBLIC "-//W3C//DTD SVG 1.1//EN" "http://www.w3.org/Graphics/SVG/1.1/DTD/svg11.dtd">
<svg version="1.1" xmlns="http://www.w3.org/2000/svg" xmlns:xlink="http://www.w3.org/1999/xlink" x="0px" y="0px" width="306px"
	 height="252px" viewBox="0 0 306 252" enable-background="new 0 0 306 252" xml:space="preserve">
<g id="Arrière-plan_xA0_Image_1_">
</g>
<g id="Shape_1_copie_2_1_" opacity="0.149" enable-background="new    ">
	<g id="Shape_1_copie_2">
		<path fill-rule="evenodd" clip-rule="evenodd" d="M305.472,38.137c-0.001-1.917-1.138-3.649-2.89-4.409
			c-48.21-20.883-98.586-20.964-149.743-0.854C101.667,12.765,51.298,12.847,3.086,33.72c-1.752,0.759-2.889,2.489-2.889,4.405
			C0.181,106.309,0.107,175.602,0,245.552c-0.003,1.679,0.836,3.03,2.23,3.572c0.794,0.314,1.702,0.34,2.614,0.111
			c0.695-0.174,1.39-0.494,2.038-0.955c54.838-37.573,101.791-37.935,144.636-18.166c0.008,0.004,0.017,0.005,0.026,0.009
			c0.006,0.003,0.01,0.007,0.017,0.01c0.201,0.095,0.419,0.144,0.63,0.213c0.173,0.057,0.338,0.136,0.516,0.175
			c0.309,0.07,0.626,0.09,0.943,0.108c0.096,0.005,0.189,0.03,0.285,0.031c0.312,0.002,0.619-0.045,0.926-0.093
			c0.102-0.016,0.208-0.012,0.309-0.033c0.252-0.054,0.487-0.155,0.728-0.244c0.14-0.052,0.29-0.078,0.425-0.142
			c0.006-0.003,0.01-0.007,0.016-0.01c0.008-0.004,0.018-0.005,0.026-0.009c42.192-19.381,89.107-19.355,142.907,20.171
			c0.639,0.489,1.314,0.832,1.992,1.027c0.891,0.257,1.777,0.254,2.55-0.048c1.357-0.52,2.172-1.882,2.164-3.602
			C305.656,176.04,305.504,106.384,305.472,38.137z M22.296,221.626c-0.074-56.453-0.078-133.009-0.077-190.544
			c39.67-16.534,81.064-16.398,123.188-0.226c0.061,56.438,0.272,129.848,0.82,179.014
			C109.301,194.265,67.864,195.297,22.296,221.626z M217.433,202.941c-21.059-1.681-39.246-0.873-57.291,6.952
			c-0.56-49.186-0.78-122.595-0.843-179.03c42.089-16.178,83.498-16.323,123.163,0.237c0.049,57.571,0.213,134.316,0.554,191.535
			C260.256,208.655,238.975,204.771,217.433,202.941z"/>
	</g>
</g>
<g id="Shape_1_copie_1_" enable-background="new    ">
	<g id="Shape_1_copie_2_">
		<path fill-rule="evenodd" clip-rule="evenodd" fill="#FFFFFF" d="M303.108,15.764c-48.164-20.786-98.493-21.003-149.615-0.725
			C102.377-5.235,52.043-5.027,3.879,15.764c-1.75,0.754-2.885,2.477-2.885,4.386v203.834c0,1.63,0.828,3.147,2.201,4.023
			c0.782,0.503,1.676,0.754,2.573,0.754c0.684,0,1.369-0.145,2.006-0.442c54.043-25.011,100.915-25.067,143.305-0.214
			c0.008,0.004,0.017,0.006,0.025,0.011c0.006,0.003,0.01,0.009,0.017,0.012c0.199,0.115,0.416,0.173,0.625,0.257
			c0.172,0.068,0.335,0.164,0.512,0.211c0.307,0.083,0.623,0.108,0.939,0.128c0.095,0.005,0.188,0.036,0.284,0.036
			c0.31,0.002,0.617-0.056,0.924-0.116c0.102-0.02,0.207-0.015,0.308-0.042c0.252-0.067,0.488-0.19,0.729-0.299
			c0.141-0.064,0.29-0.096,0.426-0.174c0.006-0.003,0.01-0.009,0.016-0.012c0.008-0.005,0.018-0.006,0.026-0.011
			c42.39-24.857,89.261-24.782,143.304,0.214c0.642,0.298,1.322,0.442,2.006,0.442c0.898,0,1.792-0.251,2.574-0.754
			c1.373-0.875,2.201-2.393,2.201-4.023V20.15C305.994,18.241,304.858,16.518,303.108,15.764z M146.054,204.112
			c-36.617-18.948-77.951-18.732-123.06,0.649V32.157c39.626-16.396,80.993-16.375,123.06,0.063V204.112z M282.994,204.761
			c-22.812-9.798-44.124-11.665-65.692-11.665c-21.081,0-39.269,1.651-57.369,11.017V32.227
			c42.067-16.445,83.438-16.466,123.061-0.063V204.761z"/>
	</g>
</g>
</svg>
