<?xml version="1.0" encoding="utf-8"?>
<!-- Generator: Adobe Illustrator 17.0.0, SVG Export Plug-In . SVG Version: 6.00 Build 0)  -->
<!DOCTYPE svg PUBLIC "-//W3C//DTD SVG 1.1//EN" "http://www.w3.org/Graphics/SVG/1.1/DTD/svg11.dtd">
<svg version="1.1" xmlns="http://www.w3.org/2000/svg" xmlns:xlink="http://www.w3.org/1999/xlink" x="0px" y="0px" width="273px"
	 height="202px" viewBox="0 0 273 202" enable-background="new 0 0 273 202" xml:space="preserve">
<g id="Arrière-plan_xA0_Image_1_">
</g>
<g id="Rectangle_arrondi_5_copie_2_1_" opacity="0.149" enable-background="new    ">
	<path fill-rule="evenodd" clip-rule="evenodd" d="M258.554,13.778c-0.152-0.152-0.305-0.304-0.457-0.457
		c-5.061-5.046-13.315-5.045-18.499,0.1c-26.571,26.76-60.37,57.223-88.688,87.213c-25.884,26.703-47.431,53.024-68.946,76.551
		c-18.465-12.491-35.429-21.85-57.052-30.945c-5.389-2.337-14.444,1.581-20.146,8.328c-0.171,0.201-0.343,0.402-0.515,0.602
		c-5.733,6.757-5.637,12.746,0.1,14.08c26.502,6.663,46.612,14.935,70.171,29.406c2.614,1.582,5.966,2.405,9.196,2.304
		c3.245-0.005,6.41-0.929,8.628-2.963c22.691-22.399,44.835-53.264,74.223-81.724c28.875-29.026,63.294-56.657,91.546-84.249
		C263.519,26.992,263.6,18.825,258.554,13.778z"/>
</g>
<g id="Rectangle_arrondi_2_copie_1_" enable-background="new    ">
	<path fill-rule="evenodd" clip-rule="evenodd" fill="#FFFFFF" d="M266.554,5.54l-0.707-0.707c-6.444-6.444-16.891-6.444-23.334,0
		L87.127,160.217l-49.385-49.385c-6.444-6.444-16.891-6.444-23.334,0l-0.707,0.707c-6.444,6.444-6.444,16.891,0,23.334
		l60.811,60.811c3.463,3.463,8.082,5.047,12.615,4.787c4.533,0.26,9.152-1.324,12.615-4.787L266.554,28.874
		C272.997,22.431,272.997,11.983,266.554,5.54z"/>
</g>
</svg>
