<?xml version="1.0" encoding="utf-8"?>
<!-- Generator: Adobe Illustrator 17.0.0, SVG Export Plug-In . SVG Version: 6.00 Build 0)  -->
<!DOCTYPE svg PUBLIC "-//W3C//DTD SVG 1.1//EN" "http://www.w3.org/Graphics/SVG/1.1/DTD/svg11.dtd">
<svg version="1.1" xmlns="http://www.w3.org/2000/svg" xmlns:xlink="http://www.w3.org/1999/xlink" x="0px" y="0px" width="294px"
	 height="306px" viewBox="0 0 294 306" enable-background="new 0 0 294 306" xml:space="preserve">
<g id="Arrière-plan_xA0_Image_1_">
</g>
<g id="Ellipse_4_copie_1_" opacity="0.149" enable-background="new    ">
	<g id="Ellipse_4_copie">
		<path d="M147.001,39c32.053,0,62.187,12.482,84.853,35.147s35.147,52.799,35.147,84.853s-12.482,62.187-35.147,84.853
			S179.054,279,147.001,279s-62.187-12.482-84.853-35.147S27.001,191.053,27.001,159s12.482-62.187,35.147-84.853
			S114.947,39,147.001,39 M147.001,13c-80.633,0-146,65.367-146,146s65.367,146,146,146s146-65.367,146-146S227.634,13,147.001,13
			L147.001,13z"/>
	</g>
</g>
<g id="Ellipse_4_1_" enable-background="new    ">
	<g id="Ellipse_4_2_">
		<path fill="#FFFFFF" d="M147.001,26c32.053,0,62.187,12.482,84.853,35.147s35.147,52.799,35.147,84.853
			s-12.482,62.187-35.147,84.853S179.054,266,147.001,266s-62.187-12.482-84.853-35.147S27.001,178.053,27.001,146
			s12.482-62.187,35.147-84.853S114.947,26,147.001,26 M147.001,0c-80.633,0-146,65.367-146,146s65.367,146,146,146
			s146-65.367,146-146S227.634,0,147.001,0L147.001,0z"/>
	</g>
</g>
<g id="Rectangle_arrondi_2_copie_2_1_" opacity="0.149" enable-background="new    ">
	<g id="Rectangle_arrondi_2_copie_2">
		<path fill-rule="evenodd" clip-rule="evenodd" d="M234.729,104.241c-0.259-0.267-0.521-0.535-0.784-0.803
			c-4.839-4.925-14.024-7.561-19.41-5.203c-18.157,7.55-35.807,19.893-52.287,33.378c0.412-10.687,0.626-21.485,0.495-32.374
			c-0.072-6.031-5.822-11.702-12.337-12.216c-0.359-0.028-0.716-0.054-1.073-0.08c-6.491-0.464-11.483,4.436-11.53,10.497
			c-0.079,20.381-0.29,40.735-0.302,61.098c0.029,6.128,4.776,11.03,10.716,10.973c0.328-0.001,0.656-0.002,0.984-0.002
			c3.683-0.019,7.105-1.82,9.274-4.568c22.603-19.564,47.124-39.976,73.557-48.975C237.656,114.03,239.487,109.165,234.729,104.241z
			"/>
	</g>
</g>
<g id="Rectangle_arrondi_2_copie_1_" enable-background="new    ">
	<path fill-rule="evenodd" clip-rule="evenodd" fill="#FFFFFF" d="M220.099,86.609l-0.707-0.707c-4.296-4.296-11.26-4.296-15.556,0
		l-43.834,43.834V97c0-6.075-4.925-11-11-11h-1c-6.075,0-11,4.925-11,11v61c0,6.075,4.925,11,11,11h1
		c3.806,0,7.159-1.933,9.134-4.871l61.964-61.964C224.394,97.87,224.394,90.905,220.099,86.609z"/>
</g>
</svg>
