<?xml version="1.0" encoding="utf-8"?>
<!-- Generator: Adobe Illustrator 17.0.0, SVG Export Plug-In . SVG Version: 6.00 Build 0)  -->
<!DOCTYPE svg PUBLIC "-//W3C//DTD SVG 1.1//EN" "http://www.w3.org/Graphics/SVG/1.1/DTD/svg11.dtd">
<svg version="1.1" xmlns="http://www.w3.org/2000/svg" xmlns:xlink="http://www.w3.org/1999/xlink" x="0px" y="0px" width="352px"
	 height="242px" viewBox="0 0 352 242" enable-background="new 0 0 352 242" xml:space="preserve">
<g id="Arrière-plan_xA0_Image_1_">
</g>
<g id="Rectangle_arrondi_3_1_" enable-background="new    ">
	<g id="Rectangle_arrondi_3">
		<path fill="#FFFFFF" d="M313.5,241h-276C16.822,241,0,224.178,0,203.5v-166C0,16.822,16.822,0,37.5,0h276
			C334.178,0,351,16.822,351,37.5v166C351,224.178,334.178,241,313.5,241z M37.5,19C27.299,19,19,27.299,19,37.5v166
			c0,10.201,8.299,18.5,18.5,18.5h276c10.201,0,18.5-8.299,18.5-18.5v-166c0-10.201-8.299-18.5-18.5-18.5H37.5z"/>
	</g>
</g>
<g id="Rectangle_arrondi_4_copie_2_1_" opacity="0.149" enable-background="new    ">
	<path fill-rule="evenodd" clip-rule="evenodd" d="M304.468,68.482c-0.166-0.29-0.333-0.58-0.499-0.87
		c-3.033-5.287-9.751-7.123-15.003-4.036c-37.51,20.717-74.779,53.465-112.188,79.221c-37.566-25.65-75.276-58.491-112.743-79.221
		c-5.254-3.088-11.97-1.251-15.003,4.036c-0.166,0.29-0.333,0.58-0.499,0.87C45.5,73.765,47.3,80.491,52.559,83.865
		c39.229,24.261,78.732,62.186,117.89,82.881c1.997,1.026,4.207,1.446,6.347,1.302c2.139,0.139,4.351-0.287,6.353-1.318
		c39.237-20.842,78.133-58.687,117.303-82.872C305.7,80.491,307.5,73.764,304.468,68.482z"/>
</g>
<g id="Rectangle_arrondi_4_copie_1_" enable-background="new    ">
	<g id="Rectangle_arrondi_4_copie">
		<path fill-rule="evenodd" clip-rule="evenodd" fill="#FFFFFF" d="M305.166,67.933l-0.5-0.866
			c-3.038-5.261-9.765-7.064-15.026-4.026L177,128.073L64.36,63.041c-5.261-3.038-11.989-1.235-15.026,4.026l-0.5,0.866
			c-3.038,5.261-1.235,11.989,4.026,15.026l117.779,68c2.003,1.156,4.217,1.607,6.36,1.437c2.143,0.17,4.358-0.281,6.36-1.437
			l117.779-68C306.401,79.922,308.204,73.194,305.166,67.933z"/>
	</g>
</g>
</svg>
